<svg width="237" height="77" viewBox="0 0 237 77" fill="none" xmlns="http://www.w3.org/2000/svg">
<path d="M104.359 35.2344C104.359 34.5391 104.492 33.8867 104.758 33.2773C105.023 32.668 105.383 32.1367 105.836 31.6836C106.297 31.2227 106.832 30.8594 107.441 30.5938C108.051 30.3281 108.703 30.1953 109.398 30.1953H117.109V33.5586H109.398C109.164 33.5586 108.945 33.6016 108.742 33.6875C108.539 33.7734 108.359 33.8945 108.203 34.0508C108.055 34.1992 107.938 34.375 107.852 34.5781C107.766 34.7812 107.723 35 107.723 35.2344C107.723 35.4688 107.766 35.6914 107.852 35.9023C107.938 36.1055 108.055 36.2852 108.203 36.4414C108.359 36.5898 108.539 36.707 108.742 36.793C108.945 36.8789 109.164 36.9219 109.398 36.9219H112.762C113.457 36.9219 114.109 37.0547 114.719 37.3203C115.336 37.5781 115.871 37.9375 116.324 38.3984C116.785 38.8516 117.145 39.3867 117.402 40.0039C117.668 40.6133 117.801 41.2656 117.801 41.9609C117.801 42.6562 117.668 43.3086 117.402 43.918C117.145 44.5273 116.785 45.0625 116.324 45.5234C115.871 45.9766 115.336 46.3359 114.719 46.6016C114.109 46.8672 113.457 47 112.762 47H105.297V43.6367H112.762C112.996 43.6367 113.215 43.5938 113.418 43.5078C113.621 43.4219 113.797 43.3047 113.945 43.1562C114.102 43 114.223 42.8203 114.309 42.6172C114.395 42.4141 114.438 42.1953 114.438 41.9609C114.438 41.7266 114.395 41.5078 114.309 41.3047C114.223 41.1016 114.102 40.9258 113.945 40.7773C113.797 40.6211 113.621 40.5 113.418 40.4141C113.215 40.3281 112.996 40.2852 112.762 40.2852H109.398C108.703 40.2852 108.051 40.1523 107.441 39.8867C106.832 39.6211 106.297 39.2617 105.836 38.8086C105.383 38.3477 105.023 37.8125 104.758 37.2031C104.492 36.5859 104.359 35.9297 104.359 35.2344ZM131.805 40.6133C131.805 41.5508 131.637 42.4258 131.301 43.2383C130.965 44.043 130.508 44.7422 129.93 45.3359C129.352 45.9219 128.672 46.3867 127.891 46.7305C127.117 47.0664 126.285 47.2344 125.395 47.2344C124.512 47.2344 123.68 47.0664 122.898 46.7305C122.125 46.3867 121.445 45.9219 120.859 45.3359C120.281 44.7422 119.824 44.043 119.488 43.2383C119.152 42.4258 118.984 41.5508 118.984 40.6133C118.984 39.6602 119.152 38.7773 119.488 37.9648C119.824 37.1523 120.281 36.4531 120.859 35.8672C121.445 35.2734 122.125 34.8086 122.898 34.4727C123.68 34.1367 124.512 33.9688 125.395 33.9688C126.285 33.9688 127.117 34.1289 127.891 34.4492C128.672 34.7617 129.352 35.2109 129.93 35.7969C130.508 36.375 130.965 37.0742 131.301 37.8945C131.637 38.707 131.805 39.6133 131.805 40.6133ZM128.582 40.6133C128.582 40.0977 128.496 39.6328 128.324 39.2188C128.16 38.7969 127.934 38.4375 127.645 38.1406C127.355 37.8359 127.016 37.6055 126.625 37.4492C126.242 37.2852 125.832 37.2031 125.395 37.2031C124.957 37.2031 124.543 37.2852 124.152 37.4492C123.77 37.6055 123.434 37.8359 123.145 38.1406C122.863 38.4375 122.641 38.7969 122.477 39.2188C122.312 39.6328 122.23 40.0977 122.23 40.6133C122.23 41.0977 122.312 41.5469 122.477 41.9609C122.641 42.375 122.863 42.7344 123.145 43.0391C123.434 43.3438 123.77 43.5859 124.152 43.7656C124.543 43.9375 124.957 44.0234 125.395 44.0234C125.832 44.0234 126.242 43.9414 126.625 43.7773C127.016 43.6133 127.355 43.3828 127.645 43.0859C127.934 42.7891 128.16 42.4297 128.324 42.0078C128.496 41.5859 128.582 41.1211 128.582 40.6133ZM142.797 45.5352C142.539 45.7695 142.262 45.9922 141.965 46.2031C141.676 46.4062 141.371 46.5859 141.051 46.7422C140.73 46.8906 140.398 47.0078 140.055 47.0938C139.719 47.1875 139.375 47.2344 139.023 47.2344C138.25 47.2344 137.523 47.0977 136.844 46.8242C136.164 46.5508 135.566 46.1641 135.051 45.6641C134.543 45.1562 134.141 44.543 133.844 43.8242C133.555 43.0977 133.41 42.2852 133.41 41.3867V34.4492H136.598V41.3867C136.598 41.8086 136.66 42.1875 136.785 42.5234C136.918 42.8516 137.094 43.1289 137.312 43.3555C137.531 43.582 137.785 43.7539 138.074 43.8711C138.371 43.9883 138.688 44.0469 139.023 44.0469C139.352 44.0469 139.66 43.9727 139.949 43.8242C140.246 43.668 140.504 43.4648 140.723 43.2148C140.941 42.9648 141.113 42.6836 141.238 42.3711C141.363 42.0508 141.426 41.7227 141.426 41.3867V34.4492H144.625V47H143.852L142.797 45.5352ZM150.273 47H147.074V34.4492H147.848L148.902 35.668C149.418 35.1992 150 34.8398 150.648 34.5898C151.305 34.332 151.988 34.2031 152.699 34.2031C153.465 34.2031 154.188 34.3516 154.867 34.6484C155.547 34.9375 156.141 35.3398 156.648 35.8555C157.156 36.3633 157.555 36.9609 157.844 37.6484C158.141 38.3281 158.289 39.0547 158.289 39.8281V47H155.09V39.8281C155.09 39.5 155.027 39.1914 154.902 38.9023C154.777 38.6055 154.605 38.3477 154.387 38.1289C154.168 37.9102 153.914 37.7383 153.625 37.6133C153.336 37.4883 153.027 37.4258 152.699 37.4258C152.363 37.4258 152.047 37.4883 151.75 37.6133C151.453 37.7383 151.195 37.9102 150.977 38.1289C150.758 38.3477 150.586 38.6055 150.461 38.9023C150.336 39.1914 150.273 39.5 150.273 39.8281V47ZM172.703 47H171.93L170.688 45.2773C170.383 45.5508 170.059 45.8086 169.715 46.0508C169.379 46.2852 169.023 46.4922 168.648 46.6719C168.273 46.8438 167.887 46.9805 167.488 47.082C167.098 47.1836 166.699 47.2344 166.293 47.2344C165.41 47.2344 164.578 47.0703 163.797 46.7422C163.023 46.4062 162.344 45.9453 161.758 45.3594C161.18 44.7656 160.723 44.0664 160.387 43.2617C160.051 42.4492 159.883 41.5664 159.883 40.6133C159.883 39.668 160.051 38.7891 160.387 37.9766C160.723 37.1641 161.18 36.4609 161.758 35.8672C162.344 35.2734 163.023 34.8086 163.797 34.4727C164.578 34.1367 165.41 33.9688 166.293 33.9688C166.574 33.9688 166.863 33.9922 167.16 34.0391C167.465 34.0859 167.758 34.1641 168.039 34.2734C168.328 34.375 168.598 34.5117 168.848 34.6836C169.098 34.8555 169.309 35.0664 169.48 35.3164V29.457H172.703V47ZM169.48 40.6133C169.48 40.1758 169.395 39.7539 169.223 39.3477C169.059 38.9336 168.832 38.5703 168.543 38.2578C168.254 37.9375 167.914 37.6836 167.523 37.4961C167.141 37.3008 166.73 37.2031 166.293 37.2031C165.855 37.2031 165.441 37.2812 165.051 37.4375C164.668 37.5938 164.332 37.8203 164.043 38.1172C163.762 38.4062 163.539 38.7617 163.375 39.1836C163.211 39.6055 163.129 40.082 163.129 40.6133C163.129 41.0742 163.211 41.5117 163.375 41.9258C163.539 42.3398 163.762 42.7031 164.043 43.0156C164.332 43.3281 164.668 43.5742 165.051 43.7539C165.441 43.9336 165.855 44.0234 166.293 44.0234C166.73 44.0234 167.141 43.9297 167.523 43.7422C167.914 43.5469 168.254 43.293 168.543 42.9805C168.832 42.6602 169.059 42.2969 169.223 41.8906C169.395 41.4766 169.48 41.0508 169.48 40.6133ZM192.168 47H188.816V35C188.816 34.7656 188.77 34.5469 188.676 34.3438C188.59 34.1406 188.469 33.9648 188.312 33.8164C188.164 33.6602 187.988 33.5391 187.785 33.4531C187.582 33.3672 187.363 33.3242 187.129 33.3242C186.895 33.3242 186.676 33.3672 186.473 33.4531C186.27 33.5391 186.09 33.6602 185.934 33.8164C185.785 33.9648 185.668 34.1406 185.582 34.3438C185.496 34.5469 185.453 34.7656 185.453 35V47H182.09V35C182.09 34.7656 182.047 34.5469 181.961 34.3438C181.875 34.1406 181.754 33.9648 181.598 33.8164C181.449 33.6602 181.273 33.5391 181.07 33.4531C180.867 33.3672 180.648 33.3242 180.414 33.3242C180.18 33.3242 179.961 33.3672 179.758 33.4531C179.555 33.5391 179.375 33.6602 179.219 33.8164C179.07 33.9648 178.953 34.1406 178.867 34.3438C178.781 34.5469 178.738 34.7656 178.738 35V47H175.375V35C175.375 34.3047 175.504 33.6523 175.762 33.043C176.027 32.4258 176.387 31.8906 176.84 31.4375C177.301 30.9766 177.836 30.6172 178.445 30.3594C179.062 30.0938 179.719 29.9609 180.414 29.9609C181.039 29.9609 181.641 30.0742 182.219 30.3008C182.797 30.5195 183.316 30.8398 183.777 31.2617C184.238 30.8398 184.754 30.5195 185.324 30.3008C185.902 30.0742 186.504 29.9609 187.129 29.9609C187.824 29.9609 188.477 30.0938 189.086 30.3594C189.703 30.6172 190.238 30.9766 190.691 31.4375C191.152 31.8906 191.512 32.4258 191.77 33.043C192.035 33.6523 192.168 34.3047 192.168 35V47ZM206.852 47H206.078L204.836 45.2773C204.531 45.5508 204.207 45.8086 203.863 46.0508C203.527 46.2852 203.172 46.4922 202.797 46.6719C202.422 46.8438 202.035 46.9805 201.637 47.082C201.246 47.1836 200.848 47.2344 200.441 47.2344C199.559 47.2344 198.727 47.0859 197.945 46.7891C197.172 46.4922 196.492 46.0625 195.906 45.5C195.328 44.9297 194.871 44.2344 194.535 43.4141C194.199 42.5938 194.031 41.6602 194.031 40.6133C194.031 39.6367 194.199 38.7422 194.535 37.9297C194.871 37.1094 195.328 36.4062 195.906 35.8203C196.492 35.2344 197.172 34.7812 197.945 34.4609C198.727 34.1328 199.559 33.9688 200.441 33.9688C200.848 33.9688 201.25 34.0195 201.648 34.1211C202.047 34.2227 202.434 34.3633 202.809 34.543C203.184 34.7227 203.539 34.9336 203.875 35.1758C204.219 35.418 204.539 35.6797 204.836 35.9609L206.078 34.4727H206.852V47ZM203.629 40.6133C203.629 40.1758 203.543 39.7539 203.371 39.3477C203.207 38.9336 202.98 38.5703 202.691 38.2578C202.402 37.9375 202.062 37.6836 201.672 37.4961C201.289 37.3008 200.879 37.2031 200.441 37.2031C200.004 37.2031 199.59 37.2773 199.199 37.4258C198.816 37.5742 198.48 37.793 198.191 38.082C197.91 38.3711 197.688 38.7305 197.523 39.1602C197.359 39.582 197.277 40.0664 197.277 40.6133C197.277 41.1602 197.359 41.6484 197.523 42.0781C197.688 42.5 197.91 42.8555 198.191 43.1445C198.48 43.4336 198.816 43.6523 199.199 43.8008C199.59 43.9492 200.004 44.0234 200.441 44.0234C200.879 44.0234 201.289 43.9297 201.672 43.7422C202.062 43.5469 202.402 43.293 202.691 42.9805C202.98 42.6602 203.207 42.2969 203.371 41.8906C203.543 41.4766 203.629 41.0508 203.629 40.6133ZM215.594 47C214.82 47 214.094 46.8555 213.414 46.5664C212.734 46.2695 212.137 45.8672 211.621 45.3594C211.113 44.8438 210.711 44.2461 210.414 43.5664C210.125 42.8867 209.98 42.1602 209.98 41.3867V37.6602H208.422V34.4727H209.98V29.457H213.168V34.4727H218.02V37.6602H213.168V41.3867C213.168 41.7227 213.23 42.0391 213.355 42.3359C213.48 42.625 213.652 42.8789 213.871 43.0977C214.09 43.3164 214.348 43.4922 214.645 43.625C214.941 43.75 215.258 43.8125 215.594 43.8125H218.02V47H215.594ZM224.816 43.9297C224.941 43.9688 225.066 43.9961 225.191 44.0117C225.316 44.0195 225.441 44.0234 225.566 44.0234C225.879 44.0234 226.18 43.9805 226.469 43.8945C226.758 43.8086 227.027 43.6875 227.277 43.5312C227.535 43.3672 227.762 43.1719 227.957 42.9453C228.16 42.7109 228.324 42.4531 228.449 42.1719L230.793 44.5273C230.496 44.9492 230.152 45.3281 229.762 45.6641C229.379 46 228.961 46.2852 228.508 46.5195C228.062 46.7539 227.59 46.9297 227.09 47.0469C226.598 47.1719 226.09 47.2344 225.566 47.2344C224.684 47.2344 223.852 47.0703 223.07 46.7422C222.297 46.4141 221.617 45.957 221.031 45.3711C220.453 44.7852 219.996 44.0898 219.66 43.2852C219.324 42.4727 219.156 41.582 219.156 40.6133C219.156 39.6211 219.324 38.7148 219.66 37.8945C219.996 37.0742 220.453 36.375 221.031 35.7969C221.617 35.2188 222.297 34.7695 223.07 34.4492C223.852 34.1289 224.684 33.9688 225.566 33.9688C226.09 33.9688 226.602 34.0312 227.102 34.1562C227.602 34.2812 228.074 34.4609 228.52 34.6953C228.973 34.9297 229.395 35.2188 229.785 35.5625C230.176 35.8984 230.52 36.2773 230.816 36.6992L224.816 43.9297ZM226.457 37.332C226.309 37.2773 226.16 37.2422 226.012 37.2266C225.871 37.2109 225.723 37.2031 225.566 37.2031C225.129 37.2031 224.715 37.2852 224.324 37.4492C223.941 37.6055 223.605 37.832 223.316 38.1289C223.035 38.4258 222.812 38.7852 222.648 39.207C222.484 39.6211 222.402 40.0898 222.402 40.6133C222.402 40.7305 222.406 40.8633 222.414 41.0117C222.43 41.1602 222.449 41.3125 222.473 41.4688C222.504 41.6172 222.539 41.7617 222.578 41.9023C222.617 42.043 222.668 42.168 222.73 42.2773L226.457 37.332Z" fill="white"/>
<g clip-path="url(#clip0)">
<path d="M42.8424 65.7067C39.8113 65.7067 37.4041 63.6666 36.9711 60.7149L30.5798 16.9242C30.5564 16.7641 30.5068 16.4269 29.9921 16.4267C29.9918 16.4267 29.9914 16.4267 29.9912 16.4267C29.4771 16.4267 29.4273 16.7634 29.4033 16.9252L24.8513 48.1784C24.4375 50.9687 22.1449 52.9999 19.2753 53.1242C16.4052 53.2483 13.9389 51.4236 13.2766 48.6863C13.2741 48.6764 13.2718 48.6667 13.2696 48.6568L11.8001 42.2469C11.4008 40.622 9.93558 39.3983 8.38676 39.3983C6.93924 39.3983 5.76587 38.2492 5.76587 36.8317C5.76587 35.4141 6.93924 34.265 8.38676 34.265C12.3668 34.265 15.9487 37.1295 16.9037 41.0762C16.9062 41.086 16.9085 41.0958 16.9107 41.1057L18.3805 47.5166C18.4174 47.667 18.5199 48.0176 19.0436 47.9958C19.5852 47.9723 19.6417 47.5906 19.663 47.4469L24.215 16.1937C24.6435 13.3052 27.0182 11.2933 29.9912 11.2933H29.9963C32.9719 11.2956 35.3455 13.3118 35.7687 16.1962L42.1598 59.9867C42.1836 60.1483 42.2526 60.5855 42.8634 60.5732C43.4796 60.5641 43.5299 60.1285 43.5489 59.9645L44.4404 52.2015C44.6021 50.7928 45.8995 49.779 47.3378 49.9378C48.7763 50.0962 49.8111 51.3666 49.6493 52.7753L48.7575 60.54C48.4113 63.5371 46.02 65.6607 42.9422 65.706C42.9089 65.7064 42.8756 65.7067 42.8424 65.7067ZM65.0221 46.7604C65.0248 46.7503 65.0273 46.7402 65.0297 46.73L65.9552 42.8843C66.4664 40.896 68.306 39.3983 70.2398 39.3983C71.6873 39.3983 72.8607 38.2492 72.8607 36.8317C72.8607 35.4141 71.6873 34.265 70.2398 34.265C65.8952 34.265 61.9523 37.3746 60.8646 41.6592C60.862 41.6693 60.8595 41.6796 60.857 41.6897L59.9315 45.5364C59.9003 45.6573 59.8447 45.8255 59.5373 45.8145C59.2169 45.8022 59.1851 45.6157 59.1652 45.499L57.1084 33.2116C56.6618 30.588 54.4547 28.8029 51.7384 28.8741C49.0233 28.9439 46.9137 30.8386 46.6084 33.4817L45.4986 43.088C45.3358 44.4966 46.3699 45.7676 47.8083 45.927C49.247 46.0866 50.5445 45.0737 50.7072 43.6652L51.817 34.0588C51.8194 34.0393 51.822 34.0236 51.8246 34.0114C51.8557 34.0046 51.897 34.0035 51.9282 34.0087C51.931 34.0194 51.9342 34.0327 51.9369 34.0488L53.9938 46.3362C54.4378 48.9453 56.6329 50.84 59.3318 50.9438C59.4092 50.9468 59.4862 50.9483 59.563 50.9483C62.1633 50.9483 64.3892 49.2538 65.0221 46.7604Z" fill="white"/>
</g>
<path d="M77.1268 38.5C77.1268 58.9051 60.2268 75.5 39.3134 75.5C18.3999 75.5 1.5 58.9051 1.5 38.5C1.5 18.0949 18.3999 1.5 39.3134 1.5C60.2268 1.5 77.1268 18.0949 77.1268 38.5Z" stroke="white" stroke-width="3"/>
<defs>
<clipPath id="clip0">
<rect width="67.0948" height="65.7067" fill="white" transform="translate(5.76587 5.64667)"/>
</clipPath>
</defs>
</svg>
