<svg width="272" height="225" viewBox="0 0 272 225" fill="none" xmlns="http://www.w3.org/2000/svg">
<path d="M9.71875 186.469C9.71875 185.078 9.98438 183.773 10.5156 182.555C11.0469 181.336 11.7656 180.273 12.6719 179.367C13.5938 178.445 14.6641 177.719 15.8828 177.188C17.1016 176.656 18.4062 176.391 19.7969 176.391H35.2188V183.117H19.7969C19.3281 183.117 18.8906 183.203 18.4844 183.375C18.0781 183.547 17.7188 183.789 17.4062 184.102C17.1094 184.398 16.875 184.75 16.7031 185.156C16.5312 185.562 16.4453 186 16.4453 186.469C16.4453 186.938 16.5312 187.383 16.7031 187.805C16.875 188.211 17.1094 188.57 17.4062 188.883C17.7188 189.18 18.0781 189.414 18.4844 189.586C18.8906 189.758 19.3281 189.844 19.7969 189.844H26.5234C27.9141 189.844 29.2188 190.109 30.4375 190.641C31.6719 191.156 32.7422 191.875 33.6484 192.797C34.5703 193.703 35.2891 194.773 35.8047 196.008C36.3359 197.227 36.6016 198.531 36.6016 199.922C36.6016 201.312 36.3359 202.617 35.8047 203.836C35.2891 205.055 34.5703 206.125 33.6484 207.047C32.7422 207.953 31.6719 208.672 30.4375 209.203C29.2188 209.734 27.9141 210 26.5234 210H11.5938V203.273H26.5234C26.9922 203.273 27.4297 203.188 27.8359 203.016C28.2422 202.844 28.5938 202.609 28.8906 202.312C29.2031 202 29.4453 201.641 29.6172 201.234C29.7891 200.828 29.875 200.391 29.875 199.922C29.875 199.453 29.7891 199.016 29.6172 198.609C29.4453 198.203 29.2031 197.852 28.8906 197.555C28.5938 197.242 28.2422 197 27.8359 196.828C27.4297 196.656 26.9922 196.57 26.5234 196.57H19.7969C18.4062 196.57 17.1016 196.305 15.8828 195.773C14.6641 195.242 13.5938 194.523 12.6719 193.617C11.7656 192.695 11.0469 191.625 10.5156 190.406C9.98438 189.172 9.71875 187.859 9.71875 186.469ZM64.6094 197.227C64.6094 199.102 64.2734 200.852 63.6016 202.477C62.9297 204.086 62.0156 205.484 60.8594 206.672C59.7031 207.844 58.3438 208.773 56.7812 209.461C55.2344 210.133 53.5703 210.469 51.7891 210.469C50.0234 210.469 48.3594 210.133 46.7969 209.461C45.25 208.773 43.8906 207.844 42.7188 206.672C41.5625 205.484 40.6484 204.086 39.9766 202.477C39.3047 200.852 38.9688 199.102 38.9688 197.227C38.9688 195.32 39.3047 193.555 39.9766 191.93C40.6484 190.305 41.5625 188.906 42.7188 187.734C43.8906 186.547 45.25 185.617 46.7969 184.945C48.3594 184.273 50.0234 183.938 51.7891 183.938C53.5703 183.938 55.2344 184.258 56.7812 184.898C58.3438 185.523 59.7031 186.422 60.8594 187.594C62.0156 188.75 62.9297 190.148 63.6016 191.789C64.2734 193.414 64.6094 195.227 64.6094 197.227ZM58.1641 197.227C58.1641 196.195 57.9922 195.266 57.6484 194.438C57.3203 193.594 56.8672 192.875 56.2891 192.281C55.7109 191.672 55.0312 191.211 54.25 190.898C53.4844 190.57 52.6641 190.406 51.7891 190.406C50.9141 190.406 50.0859 190.57 49.3047 190.898C48.5391 191.211 47.8672 191.672 47.2891 192.281C46.7266 192.875 46.2812 193.594 45.9531 194.438C45.625 195.266 45.4609 196.195 45.4609 197.227C45.4609 198.195 45.625 199.094 45.9531 199.922C46.2812 200.75 46.7266 201.469 47.2891 202.078C47.8672 202.688 48.5391 203.172 49.3047 203.531C50.0859 203.875 50.9141 204.047 51.7891 204.047C52.6641 204.047 53.4844 203.883 54.25 203.555C55.0312 203.227 55.7109 202.766 56.2891 202.172C56.8672 201.578 57.3203 200.859 57.6484 200.016C57.9922 199.172 58.1641 198.242 58.1641 197.227ZM86.5938 207.07C86.0781 207.539 85.5234 207.984 84.9297 208.406C84.3516 208.812 83.7422 209.172 83.1016 209.484C82.4609 209.781 81.7969 210.016 81.1094 210.188C80.4375 210.375 79.75 210.469 79.0469 210.469C77.5 210.469 76.0469 210.195 74.6875 209.648C73.3281 209.102 72.1328 208.328 71.1016 207.328C70.0859 206.312 69.2812 205.086 68.6875 203.648C68.1094 202.195 67.8203 200.57 67.8203 198.773V184.898H74.1953V198.773C74.1953 199.617 74.3203 200.375 74.5703 201.047C74.8359 201.703 75.1875 202.258 75.625 202.711C76.0625 203.164 76.5703 203.508 77.1484 203.742C77.7422 203.977 78.375 204.094 79.0469 204.094C79.7031 204.094 80.3203 203.945 80.8984 203.648C81.4922 203.336 82.0078 202.93 82.4453 202.43C82.8828 201.93 83.2266 201.367 83.4766 200.742C83.7266 200.102 83.8516 199.445 83.8516 198.773V184.898H90.25V210H88.7031L86.5938 207.07ZM101.547 210H95.1484V184.898H96.6953L98.8047 187.336C99.8359 186.398 101 185.68 102.297 185.18C103.609 184.664 104.977 184.406 106.398 184.406C107.93 184.406 109.375 184.703 110.734 185.297C112.094 185.875 113.281 186.68 114.297 187.711C115.312 188.727 116.109 189.922 116.688 191.297C117.281 192.656 117.578 194.109 117.578 195.656V210H111.18V195.656C111.18 195 111.055 194.383 110.805 193.805C110.555 193.211 110.211 192.695 109.773 192.258C109.336 191.82 108.828 191.477 108.25 191.227C107.672 190.977 107.055 190.852 106.398 190.852C105.727 190.852 105.094 190.977 104.5 191.227C103.906 191.477 103.391 191.82 102.953 192.258C102.516 192.695 102.172 193.211 101.922 193.805C101.672 194.383 101.547 195 101.547 195.656V210ZM146.406 210H144.859L142.375 206.555C141.766 207.102 141.117 207.617 140.43 208.102C139.758 208.57 139.047 208.984 138.297 209.344C137.547 209.688 136.773 209.961 135.977 210.164C135.195 210.367 134.398 210.469 133.586 210.469C131.82 210.469 130.156 210.141 128.594 209.484C127.047 208.812 125.688 207.891 124.516 206.719C123.359 205.531 122.445 204.133 121.773 202.523C121.102 200.898 120.766 199.133 120.766 197.227C120.766 195.336 121.102 193.578 121.773 191.953C122.445 190.328 123.359 188.922 124.516 187.734C125.688 186.547 127.047 185.617 128.594 184.945C130.156 184.273 131.82 183.938 133.586 183.938C134.148 183.938 134.727 183.984 135.32 184.078C135.93 184.172 136.516 184.328 137.078 184.547C137.656 184.75 138.195 185.023 138.695 185.367C139.195 185.711 139.617 186.133 139.961 186.633V174.914H146.406V210ZM139.961 197.227C139.961 196.352 139.789 195.508 139.445 194.695C139.117 193.867 138.664 193.141 138.086 192.516C137.508 191.875 136.828 191.367 136.047 190.992C135.281 190.602 134.461 190.406 133.586 190.406C132.711 190.406 131.883 190.562 131.102 190.875C130.336 191.188 129.664 191.641 129.086 192.234C128.523 192.812 128.078 193.523 127.75 194.367C127.422 195.211 127.258 196.164 127.258 197.227C127.258 198.148 127.422 199.023 127.75 199.852C128.078 200.68 128.523 201.406 129.086 202.031C129.664 202.656 130.336 203.148 131.102 203.508C131.883 203.867 132.711 204.047 133.586 204.047C134.461 204.047 135.281 203.859 136.047 203.484C136.828 203.094 137.508 202.586 138.086 201.961C138.664 201.32 139.117 200.594 139.445 199.781C139.789 198.953 139.961 198.102 139.961 197.227ZM185.336 210H178.633V186C178.633 185.531 178.539 185.094 178.352 184.688C178.18 184.281 177.938 183.93 177.625 183.633C177.328 183.32 176.977 183.078 176.57 182.906C176.164 182.734 175.727 182.648 175.258 182.648C174.789 182.648 174.352 182.734 173.945 182.906C173.539 183.078 173.18 183.32 172.867 183.633C172.57 183.93 172.336 184.281 172.164 184.688C171.992 185.094 171.906 185.531 171.906 186V210H165.18V186C165.18 185.531 165.094 185.094 164.922 184.688C164.75 184.281 164.508 183.93 164.195 183.633C163.898 183.32 163.547 183.078 163.141 182.906C162.734 182.734 162.297 182.648 161.828 182.648C161.359 182.648 160.922 182.734 160.516 182.906C160.109 183.078 159.75 183.32 159.438 183.633C159.141 183.93 158.906 184.281 158.734 184.688C158.562 185.094 158.477 185.531 158.477 186V210H151.75V186C151.75 184.609 152.008 183.305 152.523 182.086C153.055 180.852 153.773 179.781 154.68 178.875C155.602 177.953 156.672 177.234 157.891 176.719C159.125 176.188 160.438 175.922 161.828 175.922C163.078 175.922 164.281 176.148 165.438 176.602C166.594 177.039 167.633 177.68 168.555 178.523C169.477 177.68 170.508 177.039 171.648 176.602C172.805 176.148 174.008 175.922 175.258 175.922C176.648 175.922 177.953 176.188 179.172 176.719C180.406 177.234 181.477 177.953 182.383 178.875C183.305 179.781 184.023 180.852 184.539 182.086C185.07 183.305 185.336 184.609 185.336 186V210ZM214.703 210H213.156L210.672 206.555C210.062 207.102 209.414 207.617 208.727 208.102C208.055 208.57 207.344 208.984 206.594 209.344C205.844 209.688 205.07 209.961 204.273 210.164C203.492 210.367 202.695 210.469 201.883 210.469C200.117 210.469 198.453 210.172 196.891 209.578C195.344 208.984 193.984 208.125 192.812 207C191.656 205.859 190.742 204.469 190.07 202.828C189.398 201.188 189.062 199.32 189.062 197.227C189.062 195.273 189.398 193.484 190.07 191.859C190.742 190.219 191.656 188.812 192.812 187.641C193.984 186.469 195.344 185.562 196.891 184.922C198.453 184.266 200.117 183.938 201.883 183.938C202.695 183.938 203.5 184.039 204.297 184.242C205.094 184.445 205.867 184.727 206.617 185.086C207.367 185.445 208.078 185.867 208.75 186.352C209.438 186.836 210.078 187.359 210.672 187.922L213.156 184.945H214.703V210ZM208.258 197.227C208.258 196.352 208.086 195.508 207.742 194.695C207.414 193.867 206.961 193.141 206.383 192.516C205.805 191.875 205.125 191.367 204.344 190.992C203.578 190.602 202.758 190.406 201.883 190.406C201.008 190.406 200.18 190.555 199.398 190.852C198.633 191.148 197.961 191.586 197.383 192.164C196.82 192.742 196.375 193.461 196.047 194.32C195.719 195.164 195.555 196.133 195.555 197.227C195.555 198.32 195.719 199.297 196.047 200.156C196.375 201 196.82 201.711 197.383 202.289C197.961 202.867 198.633 203.305 199.398 203.602C200.18 203.898 201.008 204.047 201.883 204.047C202.758 204.047 203.578 203.859 204.344 203.484C205.125 203.094 205.805 202.586 206.383 201.961C206.961 201.32 207.414 200.594 207.742 199.781C208.086 198.953 208.258 198.102 208.258 197.227ZM232.188 210C230.641 210 229.188 209.711 227.828 209.133C226.469 208.539 225.273 207.734 224.242 206.719C223.227 205.688 222.422 204.492 221.828 203.133C221.25 201.773 220.961 200.32 220.961 198.773V191.32H217.844V184.945H220.961V174.914H227.336V184.945H237.039V191.32H227.336V198.773C227.336 199.445 227.461 200.078 227.711 200.672C227.961 201.25 228.305 201.758 228.742 202.195C229.18 202.633 229.695 202.984 230.289 203.25C230.883 203.5 231.516 203.625 232.188 203.625H237.039V210H232.188ZM250.633 203.859C250.883 203.938 251.133 203.992 251.383 204.023C251.633 204.039 251.883 204.047 252.133 204.047C252.758 204.047 253.359 203.961 253.938 203.789C254.516 203.617 255.055 203.375 255.555 203.062C256.07 202.734 256.523 202.344 256.914 201.891C257.32 201.422 257.648 200.906 257.898 200.344L262.586 205.055C261.992 205.898 261.305 206.656 260.523 207.328C259.758 208 258.922 208.57 258.016 209.039C257.125 209.508 256.18 209.859 255.18 210.094C254.195 210.344 253.18 210.469 252.133 210.469C250.367 210.469 248.703 210.141 247.141 209.484C245.594 208.828 244.234 207.914 243.062 206.742C241.906 205.57 240.992 204.18 240.32 202.57C239.648 200.945 239.312 199.164 239.312 197.227C239.312 195.242 239.648 193.43 240.32 191.789C240.992 190.148 241.906 188.75 243.062 187.594C244.234 186.438 245.594 185.539 247.141 184.898C248.703 184.258 250.367 183.938 252.133 183.938C253.18 183.938 254.203 184.062 255.203 184.312C256.203 184.562 257.148 184.922 258.039 185.391C258.945 185.859 259.789 186.438 260.57 187.125C261.352 187.797 262.039 188.555 262.633 189.398L250.633 203.859ZM253.914 190.664C253.617 190.555 253.32 190.484 253.023 190.453C252.742 190.422 252.445 190.406 252.133 190.406C251.258 190.406 250.43 190.57 249.648 190.898C248.883 191.211 248.211 191.664 247.633 192.258C247.07 192.852 246.625 193.57 246.297 194.414C245.969 195.242 245.805 196.18 245.805 197.227C245.805 197.461 245.812 197.727 245.828 198.023C245.859 198.32 245.898 198.625 245.945 198.938C246.008 199.234 246.078 199.523 246.156 199.805C246.234 200.086 246.336 200.336 246.461 200.555L253.914 190.664Z" fill="white"/>
<g clip-path="url(#clip0)">
<path d="M142.836 128.577C136.904 128.577 132.194 124.585 131.346 118.809L118.84 33.1178C118.794 32.8044 118.697 32.1447 117.69 32.1442C117.689 32.1442 117.688 32.1442 117.688 32.1442C116.682 32.1442 116.584 32.8032 116.537 33.1198L107.63 94.2771C106.82 99.7373 102.334 103.712 96.7185 103.955C91.1024 104.198 86.2761 100.627 84.9801 95.271C84.9752 95.2517 84.9708 95.2326 84.9665 95.2133L82.0908 82.6702C81.3095 79.4905 78.4423 77.096 75.4115 77.096C72.579 77.096 70.2829 74.8474 70.2829 72.0734C70.2829 69.2995 72.579 67.0509 75.4115 67.0509C83.1999 67.0509 90.209 72.6563 92.0779 80.3792C92.0827 80.3985 92.0871 80.4176 92.0914 80.437L94.9676 92.982C95.0399 93.2763 95.2404 93.9624 96.2651 93.9197C97.325 93.8738 97.4355 93.1269 97.4773 92.8457L106.385 31.6884C107.223 26.036 111.87 22.0991 117.688 22.0991H117.698C123.521 22.1036 128.165 26.0488 128.993 31.6932L141.5 117.384C141.546 117.7 141.681 118.556 142.877 118.532C144.082 118.514 144.181 117.662 144.218 117.341L145.963 102.15C146.279 99.393 148.818 97.4091 151.632 97.72C154.447 98.0299 156.472 100.516 156.155 103.272L154.41 118.467C153.733 124.331 149.054 128.487 143.031 128.576C142.966 128.577 142.9 128.577 142.836 128.577ZM186.238 91.5024C186.243 91.4825 186.248 91.4627 186.252 91.4429L188.063 83.9173C189.064 80.0266 192.664 77.096 196.448 77.096C199.28 77.096 201.576 74.8474 201.576 72.0734C201.576 69.2995 199.28 67.0509 196.448 67.0509C187.946 67.0509 180.23 73.1359 178.102 81.5201C178.097 81.5399 178.092 81.56 178.087 81.5798L176.276 89.1071C176.215 89.3437 176.106 89.6729 175.505 89.6513C174.878 89.6272 174.816 89.2623 174.777 89.034L170.752 64.9896C169.878 59.8556 165.559 56.3624 160.244 56.5018C154.931 56.6384 150.802 60.346 150.205 65.518L148.033 84.3161C147.715 87.0725 149.738 89.5596 152.553 89.8715C155.368 90.1837 157.907 88.2018 158.226 85.4454L160.397 66.6473C160.402 66.6091 160.407 66.5785 160.412 66.5546C160.473 66.5413 160.554 66.5391 160.615 66.5494C160.62 66.5702 160.627 66.5963 160.632 66.6277L164.657 90.6721C165.526 95.7778 169.821 99.4854 175.103 99.6886C175.254 99.6944 175.405 99.6974 175.555 99.6974C180.643 99.6974 184.999 96.3815 186.238 91.5024Z" fill="white"/>
</g>
<path d="M210.36 75.3381C210.36 115.517 177.086 148.176 135.93 148.176C94.7738 148.176 61.5 115.517 61.5 75.3381C61.5 35.1598 94.7738 2.5 135.93 2.5C177.086 2.5 210.36 35.1598 210.36 75.3381Z" stroke="white" stroke-width="5"/>
<defs>
<clipPath id="clip0">
<rect width="131.293" height="128.577" fill="white" transform="translate(70.2829 11.0496)"/>
</clipPath>
</defs>
</svg>
